ply
format ascii 1.0
comment VCGLIB generated
element vertex 11
property float x
property float y
property float z
property uchar red
property uchar green
property uchar blue
property float quality
end_header
0.000000 0.000000 0.000000 0 0 128 0.000000
0.000000 0.000000 0.100000 0 0 242 0.100000
0.000000 0.000000 0.200000 0 78 255 0.200000
0.000000 0.000000 0.300000 0 178 255 0.300000
0.000000 0.000000 0.400000 43 255 205 0.400000
0.000000 0.000000 0.500000 127 255 121 0.500000
0.000000 0.000000 0.600000 208 255 40 0.600000
0.000000 0.000000 0.700000 255 194 0 0.700000
0.000000 0.000000 0.800000 255 101 0 0.800000
0.000000 0.000000 0.900000 238 5 0 0.900000
0.000000 0.000000 1.000000 128 0 0 1.000000
